<mxfile host="app.diagrams.net" modified="2024-06-17T23:14:55.056Z" agent="Mozilla/5.0 (Windows NT 10.0; Win64; x64) AppleWebKit/537.36 (KHTML, like Gecko) Chrome/125.0.0.0 Safari/537.36" etag="b7mczqMGGHCtMEM-Voi6" version="24.5.5" type="github">
  <diagram id="C5RBs43oDa-KdzZeNtuy" name="Page-1">
    <mxGraphModel dx="1877" dy="699" grid="1" gridSize="10" guides="1" tooltips="1" connect="1" arrows="1" fold="1" page="1" pageScale="1" pageWidth="827" pageHeight="1169" math="0" shadow="0">
      <root>
        <mxCell id="WIyWlLk6GJQsqaUBKTNV-0" />
        <mxCell id="WIyWlLk6GJQsqaUBKTNV-1" parent="WIyWlLk6GJQsqaUBKTNV-0" />
        <mxCell id="WIyWlLk6GJQsqaUBKTNV-2" value="" style="rounded=0;html=1;jettySize=auto;orthogonalLoop=1;fontSize=11;endArrow=block;endFill=0;endSize=8;strokeWidth=1;shadow=0;labelBackgroundColor=none;edgeStyle=orthogonalEdgeStyle;" parent="WIyWlLk6GJQsqaUBKTNV-1" edge="1">
          <mxGeometry relative="1" as="geometry">
            <mxPoint x="220" y="120" as="sourcePoint" />
            <mxPoint x="220" y="170" as="targetPoint" />
          </mxGeometry>
        </mxCell>
        <mxCell id="Mol4iM1pu7cychuhXDxR-0" value="&lt;font style=&quot;vertical-align: inherit; font-size: 13px;&quot;&gt;&lt;font style=&quot;vertical-align: inherit; font-size: 13px;&quot;&gt;Inicio&lt;/font&gt;&lt;/font&gt;" style="ellipse;whiteSpace=wrap;html=1;fillColor=#f8cecc;strokeColor=#b85450;fontStyle=1;fontFamily=Times New Roman;textShadow=1;fontSize=13;" vertex="1" parent="WIyWlLk6GJQsqaUBKTNV-1">
          <mxGeometry x="160" y="40" width="120" height="80" as="geometry" />
        </mxCell>
        <mxCell id="Mol4iM1pu7cychuhXDxR-4" value="" style="edgeStyle=orthogonalEdgeStyle;rounded=0;orthogonalLoop=1;jettySize=auto;html=1;" edge="1" parent="WIyWlLk6GJQsqaUBKTNV-1" source="Mol4iM1pu7cychuhXDxR-1" target="Mol4iM1pu7cychuhXDxR-2">
          <mxGeometry relative="1" as="geometry" />
        </mxCell>
        <mxCell id="Mol4iM1pu7cychuhXDxR-1" value="&lt;font style=&quot;vertical-align: inherit; font-size: 13px;&quot;&gt;&lt;font style=&quot;vertical-align: inherit; font-size: 13px;&quot;&gt;Monitorización de Consumo Energético&lt;/font&gt;&lt;/font&gt;" style="rounded=0;whiteSpace=wrap;html=1;fillColor=#d5e8d4;strokeColor=#82b366;fontFamily=Times New Roman;fontStyle=1;fontSize=13;textShadow=1;labelBorderColor=none;labelBackgroundColor=none;" vertex="1" parent="WIyWlLk6GJQsqaUBKTNV-1">
          <mxGeometry x="160" y="170" width="120" height="60" as="geometry" />
        </mxCell>
        <mxCell id="Mol4iM1pu7cychuhXDxR-6" value="" style="edgeStyle=orthogonalEdgeStyle;rounded=0;orthogonalLoop=1;jettySize=auto;html=1;" edge="1" parent="WIyWlLk6GJQsqaUBKTNV-1" source="Mol4iM1pu7cychuhXDxR-2" target="Mol4iM1pu7cychuhXDxR-5">
          <mxGeometry relative="1" as="geometry" />
        </mxCell>
        <mxCell id="Mol4iM1pu7cychuhXDxR-2" value="&lt;font style=&quot;vertical-align: inherit; font-size: 13px;&quot;&gt;&lt;font style=&quot;vertical-align: inherit; font-size: 13px;&quot;&gt;Recopilar Datos de Sensores&lt;/font&gt;&lt;/font&gt;" style="rounded=0;whiteSpace=wrap;html=1;fillColor=#d5e8d4;strokeColor=#82b366;fontStyle=1;fontFamily=Times New Roman;fontSize=13;textShadow=1;" vertex="1" parent="WIyWlLk6GJQsqaUBKTNV-1">
          <mxGeometry x="160" y="270" width="120" height="60" as="geometry" />
        </mxCell>
        <mxCell id="Mol4iM1pu7cychuhXDxR-8" value="" style="edgeStyle=orthogonalEdgeStyle;rounded=0;orthogonalLoop=1;jettySize=auto;html=1;" edge="1" parent="WIyWlLk6GJQsqaUBKTNV-1" source="Mol4iM1pu7cychuhXDxR-5" target="Mol4iM1pu7cychuhXDxR-7">
          <mxGeometry relative="1" as="geometry" />
        </mxCell>
        <mxCell id="Mol4iM1pu7cychuhXDxR-5" value="&lt;font style=&quot;vertical-align: inherit; font-size: 13px;&quot;&gt;&lt;font style=&quot;vertical-align: inherit; font-size: 13px;&quot;&gt;Análisis de datos&lt;/font&gt;&lt;/font&gt;" style="rounded=0;whiteSpace=wrap;html=1;fillColor=#d5e8d4;strokeColor=#82b366;fontStyle=1;fontFamily=Times New Roman;fontSize=13;textShadow=1;" vertex="1" parent="WIyWlLk6GJQsqaUBKTNV-1">
          <mxGeometry x="160" y="370" width="120" height="60" as="geometry" />
        </mxCell>
        <mxCell id="Mol4iM1pu7cychuhXDxR-10" value="" style="edgeStyle=orthogonalEdgeStyle;rounded=0;orthogonalLoop=1;jettySize=auto;html=1;" edge="1" parent="WIyWlLk6GJQsqaUBKTNV-1" source="Mol4iM1pu7cychuhXDxR-7" target="Mol4iM1pu7cychuhXDxR-9">
          <mxGeometry relative="1" as="geometry" />
        </mxCell>
        <mxCell id="Mol4iM1pu7cychuhXDxR-11" value="&lt;font style=&quot;vertical-align: inherit;&quot;&gt;&lt;font style=&quot;vertical-align: inherit;&quot;&gt;Sí&lt;/font&gt;&lt;/font&gt;" style="edgeLabel;html=1;align=center;verticalAlign=middle;resizable=0;points=[];" vertex="1" connectable="0" parent="Mol4iM1pu7cychuhXDxR-10">
          <mxGeometry x="-0.2933" y="1" relative="1" as="geometry">
            <mxPoint as="offset" />
          </mxGeometry>
        </mxCell>
        <mxCell id="Mol4iM1pu7cychuhXDxR-15" value="" style="edgeStyle=orthogonalEdgeStyle;rounded=0;orthogonalLoop=1;jettySize=auto;html=1;" edge="1" parent="WIyWlLk6GJQsqaUBKTNV-1" source="Mol4iM1pu7cychuhXDxR-7" target="Mol4iM1pu7cychuhXDxR-14">
          <mxGeometry relative="1" as="geometry" />
        </mxCell>
        <mxCell id="Mol4iM1pu7cychuhXDxR-16" value="&lt;font style=&quot;vertical-align: inherit;&quot;&gt;&lt;font style=&quot;vertical-align: inherit;&quot;&gt;No&lt;/font&gt;&lt;/font&gt;" style="edgeLabel;html=1;align=center;verticalAlign=middle;resizable=0;points=[];" vertex="1" connectable="0" parent="Mol4iM1pu7cychuhXDxR-15">
          <mxGeometry x="-0.44" relative="1" as="geometry">
            <mxPoint as="offset" />
          </mxGeometry>
        </mxCell>
        <mxCell id="Mol4iM1pu7cychuhXDxR-7" value="&lt;font style=&quot;vertical-align: inherit; font-size: 13px;&quot;&gt;&lt;font style=&quot;vertical-align: inherit; font-size: 13px;&quot;&gt;¿Consumo Excesivo?&lt;/font&gt;&lt;/font&gt;" style="rhombus;whiteSpace=wrap;html=1;fillColor=#dae8fc;strokeColor=#6c8ebf;fontFamily=Times New Roman;fontStyle=1;textShadow=1;fontSize=13;" vertex="1" parent="WIyWlLk6GJQsqaUBKTNV-1">
          <mxGeometry x="180" y="450" width="80" height="80" as="geometry" />
        </mxCell>
        <mxCell id="Mol4iM1pu7cychuhXDxR-18" value="" style="edgeStyle=orthogonalEdgeStyle;rounded=0;orthogonalLoop=1;jettySize=auto;html=1;" edge="1" parent="WIyWlLk6GJQsqaUBKTNV-1" source="Mol4iM1pu7cychuhXDxR-9" target="Mol4iM1pu7cychuhXDxR-17">
          <mxGeometry relative="1" as="geometry" />
        </mxCell>
        <mxCell id="Mol4iM1pu7cychuhXDxR-21" value="" style="edgeStyle=orthogonalEdgeStyle;rounded=0;orthogonalLoop=1;jettySize=auto;html=1;" edge="1" parent="WIyWlLk6GJQsqaUBKTNV-1" source="Mol4iM1pu7cychuhXDxR-9" target="Mol4iM1pu7cychuhXDxR-19">
          <mxGeometry relative="1" as="geometry" />
        </mxCell>
        <mxCell id="Mol4iM1pu7cychuhXDxR-23" value="" style="edgeStyle=orthogonalEdgeStyle;rounded=0;orthogonalLoop=1;jettySize=auto;html=1;" edge="1" parent="WIyWlLk6GJQsqaUBKTNV-1" source="Mol4iM1pu7cychuhXDxR-9" target="Mol4iM1pu7cychuhXDxR-22">
          <mxGeometry relative="1" as="geometry" />
        </mxCell>
        <mxCell id="Mol4iM1pu7cychuhXDxR-9" value="&lt;font style=&quot;vertical-align: inherit; font-size: 13px;&quot;&gt;&lt;font style=&quot;vertical-align: inherit; font-size: 13px;&quot;&gt;Activar Modo de Ahorro Energético&lt;/font&gt;&lt;/font&gt;" style="whiteSpace=wrap;html=1;fillColor=#d5e8d4;strokeColor=#82b366;fontFamily=Times New Roman;fontSize=13;fontStyle=1;textShadow=1;" vertex="1" parent="WIyWlLk6GJQsqaUBKTNV-1">
          <mxGeometry y="460" width="120" height="60" as="geometry" />
        </mxCell>
        <mxCell id="Mol4iM1pu7cychuhXDxR-25" value="" style="edgeStyle=orthogonalEdgeStyle;rounded=0;orthogonalLoop=1;jettySize=auto;html=1;" edge="1" parent="WIyWlLk6GJQsqaUBKTNV-1" source="Mol4iM1pu7cychuhXDxR-14" target="Mol4iM1pu7cychuhXDxR-24">
          <mxGeometry relative="1" as="geometry" />
        </mxCell>
        <mxCell id="Mol4iM1pu7cychuhXDxR-14" value="&lt;font style=&quot;vertical-align: inherit; font-size: 13px;&quot;&gt;&lt;font style=&quot;vertical-align: inherit; font-size: 13px;&quot;&gt;Monitorización continua&lt;/font&gt;&lt;/font&gt;" style="whiteSpace=wrap;html=1;fillColor=#d5e8d4;strokeColor=#82b366;textShadow=1;fontStyle=1;fontFamily=Times New Roman;fontSize=13;" vertex="1" parent="WIyWlLk6GJQsqaUBKTNV-1">
          <mxGeometry x="320" y="460" width="120" height="60" as="geometry" />
        </mxCell>
        <mxCell id="Mol4iM1pu7cychuhXDxR-17" value="&lt;font style=&quot;vertical-align: inherit; font-size: 13px;&quot;&gt;&lt;font style=&quot;vertical-align: inherit; font-size: 13px;&quot;&gt;Optimizar el Uso de Recursos&lt;/font&gt;&lt;/font&gt;" style="whiteSpace=wrap;html=1;fillColor=#d5e8d4;strokeColor=#82b366;fontSize=13;fontFamily=Times New Roman;fontStyle=1;textShadow=1;" vertex="1" parent="WIyWlLk6GJQsqaUBKTNV-1">
          <mxGeometry y="600" width="120" height="60" as="geometry" />
        </mxCell>
        <mxCell id="Mol4iM1pu7cychuhXDxR-19" value="&lt;font style=&quot;vertical-align: inherit; font-size: 13px;&quot;&gt;&lt;font style=&quot;vertical-align: inherit; font-size: 13px;&quot;&gt;Reducir Iluminación&lt;/font&gt;&lt;/font&gt;" style="whiteSpace=wrap;html=1;fillColor=#d5e8d4;strokeColor=#82b366;fontStyle=1;textShadow=1;fontSize=13;fontFamily=Times New Roman;" vertex="1" parent="WIyWlLk6GJQsqaUBKTNV-1">
          <mxGeometry y="370" width="120" height="60" as="geometry" />
        </mxCell>
        <mxCell id="Mol4iM1pu7cychuhXDxR-22" value="&lt;font style=&quot;vertical-align: inherit; font-size: 13px;&quot;&gt;&lt;font style=&quot;vertical-align: inherit; font-size: 13px;&quot;&gt;Ajustar temperatura&lt;/font&gt;&lt;/font&gt;" style="whiteSpace=wrap;html=1;fillColor=#d5e8d4;strokeColor=#82b366;fontFamily=Times New Roman;fontSize=13;fontStyle=1;textShadow=1;" vertex="1" parent="WIyWlLk6GJQsqaUBKTNV-1">
          <mxGeometry x="-200" y="460" width="120" height="60" as="geometry" />
        </mxCell>
        <mxCell id="Mol4iM1pu7cychuhXDxR-27" value="" style="edgeStyle=orthogonalEdgeStyle;rounded=0;orthogonalLoop=1;jettySize=auto;html=1;" edge="1" parent="WIyWlLk6GJQsqaUBKTNV-1" source="Mol4iM1pu7cychuhXDxR-24" target="Mol4iM1pu7cychuhXDxR-26">
          <mxGeometry relative="1" as="geometry" />
        </mxCell>
        <mxCell id="Mol4iM1pu7cychuhXDxR-24" value="&lt;font style=&quot;vertical-align: inherit; font-size: 13px;&quot;&gt;&lt;font style=&quot;vertical-align: inherit; font-size: 13px;&quot;&gt;Generación de Informes&lt;/font&gt;&lt;/font&gt;" style="whiteSpace=wrap;html=1;fillColor=#d5e8d4;strokeColor=#82b366;fontFamily=Times New Roman;fontStyle=1;fontSize=13;textShadow=1;" vertex="1" parent="WIyWlLk6GJQsqaUBKTNV-1">
          <mxGeometry x="320" y="600" width="120" height="60" as="geometry" />
        </mxCell>
        <mxCell id="Mol4iM1pu7cychuhXDxR-29" value="" style="edgeStyle=orthogonalEdgeStyle;rounded=0;orthogonalLoop=1;jettySize=auto;html=1;" edge="1" parent="WIyWlLk6GJQsqaUBKTNV-1" source="Mol4iM1pu7cychuhXDxR-26" target="Mol4iM1pu7cychuhXDxR-28">
          <mxGeometry relative="1" as="geometry" />
        </mxCell>
        <mxCell id="Mol4iM1pu7cychuhXDxR-26" value="&lt;font style=&quot;vertical-align: inherit; font-size: 13px;&quot;&gt;&lt;font style=&quot;vertical-align: inherit; font-size: 13px;&quot;&gt;Informes para Toma de Decisiones&lt;/font&gt;&lt;/font&gt;" style="whiteSpace=wrap;html=1;fillColor=#d5e8d4;strokeColor=#82b366;fontFamily=Times New Roman;fontSize=13;fontStyle=1;textShadow=1;" vertex="1" parent="WIyWlLk6GJQsqaUBKTNV-1">
          <mxGeometry x="320" y="740" width="120" height="60" as="geometry" />
        </mxCell>
        <mxCell id="Mol4iM1pu7cychuhXDxR-31" value="" style="edgeStyle=orthogonalEdgeStyle;rounded=0;orthogonalLoop=1;jettySize=auto;html=1;" edge="1" parent="WIyWlLk6GJQsqaUBKTNV-1" source="Mol4iM1pu7cychuhXDxR-28">
          <mxGeometry relative="1" as="geometry">
            <mxPoint x="380" y="1020" as="targetPoint" />
          </mxGeometry>
        </mxCell>
        <mxCell id="Mol4iM1pu7cychuhXDxR-28" value="&lt;font style=&quot;vertical-align: inherit; font-size: 13px;&quot;&gt;&lt;font style=&quot;vertical-align: inherit; font-size: 13px;&quot;&gt;Configuración de Horarios&lt;/font&gt;&lt;/font&gt;" style="whiteSpace=wrap;html=1;fillColor=#d5e8d4;strokeColor=#82b366;fontSize=13;fontStyle=1;fontFamily=Times New Roman;textShadow=1;" vertex="1" parent="WIyWlLk6GJQsqaUBKTNV-1">
          <mxGeometry x="320" y="880" width="120" height="60" as="geometry" />
        </mxCell>
        <mxCell id="Mol4iM1pu7cychuhXDxR-32" value="&lt;font style=&quot;vertical-align: inherit; font-size: 13px;&quot;&gt;&lt;font style=&quot;vertical-align: inherit; font-size: 13px;&quot;&gt;Fin&lt;/font&gt;&lt;/font&gt;" style="ellipse;whiteSpace=wrap;html=1;fillColor=#f8cecc;strokeColor=#b85450;fontSize=13;fontFamily=Times New Roman;fontStyle=1;textShadow=1;" vertex="1" parent="WIyWlLk6GJQsqaUBKTNV-1">
          <mxGeometry x="320" y="1020" width="120" height="80" as="geometry" />
        </mxCell>
      </root>
    </mxGraphModel>
  </diagram>
</mxfile>
